<svg width="620" height="543" viewBox="0 0 620 543" fill="none" xmlns="http://www.w3.org/2000/svg">
<g clip-path="url(#clip0_256_92)">
<path d="M379.796 255.866C367.94 263.026 346.817 271.999 325.232 262.778L311.279 256.818L339.24 225.252C316.927 200.477 304.583 168.217 304.617 134.77C304.651 101.322 317.061 69.0879 339.424 44.3585C361.787 19.629 392.498 4.17944 425.563 1.0253C458.628 -2.12884 491.674 7.23884 518.25 27.2999C544.826 47.3609 563.025 76.6754 569.294 109.522C575.564 142.368 569.454 176.388 552.158 204.942C534.861 233.496 507.619 254.534 475.749 263.95C443.879 273.366 409.669 270.484 379.796 255.866ZM326.222 134.694C326.16 150.113 329.268 165.377 335.348 179.528C341.429 193.678 350.351 206.409 361.554 216.918L369.267 224.217L351.672 244.08C360.837 242.207 368.819 237.214 372.867 234.314L378.421 230.334L384.394 233.64C400.905 242.743 419.426 247.514 438.25 247.512C500.022 247.512 550.277 196.903 550.277 134.694C550.277 72.4862 500.022 21.8761 438.25 21.8761C376.478 21.8761 326.222 72.4862 326.222 134.694Z" fill="#3F3D56"/>
<path d="M315.361 134.694C315.361 66.3456 370.38 10.938 438.25 10.938C506.119 10.938 561.139 66.3456 561.139 134.694C561.139 203.043 506.119 258.45 438.25 258.45C417.594 258.481 397.267 253.244 379.164 243.227C370.669 249.313 349.946 261.454 329.473 252.709L354.116 224.89C341.866 213.331 332.105 199.36 325.438 183.845C318.771 168.329 315.341 151.6 315.361 134.694Z" fill="#40D4CC"/>
<path opacity="0.1" d="M540.204 134.962C540.204 70.3006 490.957 17.231 428.176 11.6929C431.756 11.3771 435.377 11.2062 439.038 11.2062C506.907 11.2062 561.927 66.6138 561.927 134.962C561.927 203.311 506.907 258.719 439.038 258.719C435.382 258.719 431.768 258.546 428.193 258.231C490.966 252.684 540.204 199.618 540.204 134.962Z" fill="black"/>
<path d="M155.065 427.79C124.359 427.804 94.5811 417.19 70.7215 397.725C46.862 378.26 30.3709 351.128 24.012 320.876C17.653 290.623 21.8128 259.089 35.794 231.557C49.7752 204.026 72.7283 182.171 100.807 169.654C128.885 157.138 160.382 154.72 190.019 162.808C219.657 170.895 245.633 188.995 263.596 214.075C281.558 239.155 290.415 269.69 288.681 300.564C286.948 331.437 274.73 360.773 254.075 383.654L282.036 415.219L268.083 421.179C246.498 430.4 225.375 421.428 213.519 414.267C195.299 423.163 175.314 427.786 155.065 427.79ZM155.065 180.277C93.2932 180.277 43.0376 230.887 43.0376 293.096C43.0376 355.304 93.2932 405.914 155.065 405.914C173.889 405.916 192.41 401.145 208.921 392.041L214.894 388.736L220.448 392.715C224.496 395.615 232.478 400.608 241.643 402.481L224.048 382.618L231.761 375.32C242.964 364.81 251.886 352.08 257.967 337.929C264.047 323.779 267.155 308.514 267.093 293.096C267.093 230.887 216.837 180.277 155.065 180.277Z" fill="#3F3D56"/>
<path d="M277.954 293.095C277.954 224.747 222.935 169.339 155.065 169.339C87.1954 169.339 32.1761 224.747 32.1761 293.095C32.1761 361.444 87.1954 416.852 155.065 416.852C175.721 416.882 196.048 411.645 214.151 401.628C222.646 407.715 243.369 419.855 263.842 411.11L239.198 383.291C251.449 371.732 261.21 357.761 267.877 342.246C274.543 326.73 277.973 310.001 277.954 293.095Z" fill="#40D4CC"/>
<path opacity="0.1" d="M53.899 292.47C53.899 227.808 103.145 174.739 165.927 169.201C162.347 168.885 158.726 168.714 155.065 168.714C87.1954 168.714 32.1761 224.122 32.1761 292.47C32.1761 360.819 87.1954 416.227 155.065 416.227C158.721 416.227 162.335 416.053 165.909 415.738C103.136 410.192 53.899 357.126 53.899 292.47Z" fill="black"/>
<path d="M467.099 95.377C459.059 81.6953 443.151 81.0577 443.151 81.0577C443.151 81.0577 427.65 79.0614 417.707 99.8988C408.439 119.321 395.647 138.074 415.648 142.62L419.26 131.297L421.497 143.463C424.345 143.669 427.202 143.719 430.055 143.61C451.474 142.914 471.872 143.814 471.215 136.074C470.342 125.784 474.836 108.542 467.099 95.377Z" fill="#2F2E41"/>
<path d="M414.505 215.194C414.269 216.699 413.926 218.185 413.48 219.641C412.977 221.065 412.2 222.383 411.74 223.823C410.273 228.411 412.306 233.527 415.553 237.069C418.369 240.128 422.003 242.301 426.018 243.326C428.974 243.963 431.988 244.282 435.011 244.278C443.369 244.564 451.943 244.819 459.863 242.114C462.365 241.238 464.782 240.132 467.083 238.811C467.81 238.462 468.45 237.954 468.957 237.325C469.487 236.403 469.723 235.339 469.633 234.277C469.615 230.709 468.897 227.159 469.067 223.595C469.162 221.62 469.529 219.648 469.348 217.679C469.098 215.444 468.168 213.341 466.686 211.659C465.203 209.976 463.241 208.796 461.067 208.28C458.82 207.794 456.49 208.059 454.202 208.28C448.265 208.855 442.302 209.123 436.337 209.085C430.243 209.045 424.186 208.108 418.122 208.011C416.328 207.982 416.364 208.538 415.793 210.286C415.268 211.895 414.837 213.534 414.505 215.194Z" fill="#2F2E41"/>
<path d="M431.801 127.082C431.508 128.627 431.192 130.228 430.27 131.497C429.21 132.957 427.481 133.791 426.34 135.189C424.623 137.292 424.525 140.252 424.518 142.975C424.511 145.483 424.562 148.158 425.951 150.24C426.939 151.534 428.166 152.623 429.564 153.449C434.773 156.984 440.402 160.582 446.682 160.699C449.284 160.747 452.075 160.071 453.787 158.097C454.526 157.17 455.107 156.125 455.507 155.006C457.113 151.02 458.086 146.804 458.391 142.513C458.623 140.496 458.436 138.452 457.842 136.512C457.079 134.369 455.537 132.607 454.517 130.576C453.312 128.161 452.871 125.431 453.254 122.756C453.305 122.568 453.289 122.367 453.21 122.189C453.126 122.094 453.021 122.02 452.904 121.972C452.787 121.924 452.66 121.904 452.534 121.914L440.082 121.011C438.922 120.953 437.767 120.82 436.624 120.613C435.953 120.475 434.18 119.515 433.54 119.77C432.355 120.243 432.044 125.802 431.801 127.082Z" fill="#A0616A"/>
<path opacity="0.1" d="M431.801 127.474C431.508 129.018 431.192 130.619 430.27 131.888C429.21 133.348 427.481 134.183 426.34 135.58C424.623 137.683 424.525 140.643 424.518 143.366C424.511 145.874 424.562 148.55 425.951 150.632C426.939 151.925 428.166 153.015 429.564 153.84C434.773 157.375 440.402 160.974 446.682 161.091C449.284 161.139 452.075 160.462 453.787 158.488C454.526 157.561 455.107 156.517 455.507 155.398C457.113 151.411 458.086 147.195 458.391 142.905C458.623 140.887 458.436 138.844 457.842 136.903C457.079 134.761 455.537 132.998 454.517 130.967C453.312 128.552 452.871 125.823 453.254 123.148C453.305 122.959 453.289 122.759 453.21 122.581C453.126 122.486 453.021 122.411 452.904 122.363C452.787 122.316 452.66 122.296 452.534 122.305L440.082 121.402C438.922 121.344 437.767 121.211 436.624 121.004C435.953 120.867 434.18 119.907 433.54 120.162C432.355 120.634 432.044 126.193 431.801 127.474Z" fill="black"/>
<path d="M443.71 128.764C453.8 128.764 461.979 120.527 461.979 110.366C461.979 100.204 453.8 91.9669 443.71 91.9669C433.62 91.9669 425.44 100.204 425.44 110.366C425.44 120.527 433.62 128.764 443.71 128.764Z" fill="#A0616A"/>
<path d="M434.363 151.574C435.266 152.626 436.354 153.502 437.572 154.156C438.843 154.685 440.207 154.946 441.581 154.925C444.875 155.018 448.445 154.41 450.736 152.026C453.689 148.952 453.592 143.995 455.906 140.409C456.093 140.084 456.347 139.804 456.652 139.588C457.041 139.375 457.479 139.273 457.921 139.294C460.845 139.267 463.391 141.176 465.69 142.996C466.771 143.746 467.7 144.698 468.424 145.801C468.878 146.694 469.19 147.654 469.346 148.645C470.487 154.252 470.856 159.984 471.222 165.696C471.425 168.851 471.628 172.008 471.613 175.17C471.563 185.584 469.159 195.825 466.769 205.958C466.461 207.264 466.039 208.723 464.86 209.349C464.335 209.587 463.77 209.725 463.195 209.758C456.348 210.568 449.487 211.379 442.595 211.485C439.905 211.527 437.216 211.462 434.528 211.289C434.066 211.283 433.607 211.202 433.169 211.05C432.576 210.763 432.066 210.327 431.688 209.783C427.96 205.052 427.74 198.51 427.763 192.47C427.822 177.702 428.346 162.946 429.335 148.202C429.417 146.985 429.435 145.507 428.564 144.55C430.259 147.08 432.202 149.433 434.363 151.574Z" fill="white"/>
<path d="M430.493 130.33C429.876 131.455 425.327 134.248 424.449 135.18C419.542 140.389 410.586 140.194 406.098 145.773C404.519 147.736 403.699 150.202 403.095 152.654C402.242 156.122 401.786 159.904 403.216 163.174C404.591 166.32 407.487 168.496 409.453 171.306C411.611 174.392 412.582 178.139 413.512 181.796C414.199 184.496 414.891 187.262 414.624 190.036C414.319 193.191 412.804 196.079 411.909 199.117C411.014 202.155 410.86 205.773 412.929 208.16C414.449 209.914 416.833 210.61 419.112 211.001C422.031 211.443 424.974 211.701 427.925 211.774C430.53 211.89 433.401 211.912 435.404 210.23C436.984 208.903 437.671 206.75 437.76 204.68C437.849 202.61 437.421 200.558 437.153 198.503C436.875 196.374 436.769 194.225 436.679 192.079C436.279 182.45 436.224 172.814 436.515 163.173C436.662 161.169 436.565 159.154 436.225 157.174C435.666 154.595 434.282 152.29 433.127 149.92C430.819 145.457 429.773 140.44 430.105 135.419C430.455 130.259 432.689 126.327 430.493 130.33Z" fill="white"/>
<path d="M456.149 130.721C457.089 131.694 460.282 132.015 461.478 132.641C462.603 133.165 463.776 133.574 464.981 133.863C469.342 135.13 473.491 137.047 477.288 139.551C478.077 140.016 478.774 140.623 479.346 141.341C479.948 142.327 480.336 143.431 480.484 144.579C481.07 147.499 481.658 150.455 481.527 153.431C481.387 156.59 480.442 159.65 479.504 162.668L476.002 173.946C473.387 182.364 470.756 190.865 470.02 199.654C469.613 204.525 469.794 209.428 470.559 214.255C470.631 214.49 470.652 214.737 470.622 214.981C470.591 215.225 470.51 215.459 470.382 215.669C470.152 215.899 469.848 216.039 469.524 216.066C467.834 216.333 466.198 215.465 464.666 214.696C459.984 212.35 454.988 210.704 449.834 209.809C451.848 206.878 453.402 203.653 454.441 200.246C455.031 198.083 455.496 195.887 455.833 193.669L457.462 184.178C458.125 180.709 458.592 177.205 458.86 173.682C458.983 172.361 458.907 171.028 458.633 169.729C458.258 168.493 457.759 167.298 457.145 166.163C454.46 160.538 453.2 154.118 454.256 147.968C454.719 145.276 455.617 142.581 455.243 139.876C454.882 137.274 455.257 135.253 454.594 132.679C451.873 122.109 454.381 128.891 456.149 130.721Z" fill="white"/>
<path d="M406.052 154.667C404.827 157.225 402.78 159.405 402.084 162.157C401.813 163.443 401.697 164.758 401.738 166.072C401.617 168.052 401.812 170.04 402.315 171.958C402.703 173.172 403.336 174.291 403.792 175.481C404.427 177.143 404.71 178.921 404.622 180.7C404.5 183.164 403.668 185.556 403.603 188.023C403.501 191.902 405.283 195.549 407.021 199.012C407.459 197.921 408.128 196.939 408.981 196.135C409.835 195.332 410.853 194.726 411.963 194.359C413.074 193.993 414.251 193.876 415.411 194.015C416.571 194.155 417.687 194.548 418.681 195.168C419.079 194.675 419.268 194.044 419.206 193.412C419.335 188.912 419.459 184.412 419.578 179.911C419.766 172.95 419.946 165.897 418.356 159.121C417.638 156.061 416.521 153.013 414.473 150.64C413.395 149.391 409.735 146.099 407.965 147.499C407.169 148.129 407.355 149.842 407.229 150.71C407.038 152.082 406.641 153.416 406.052 154.667Z" fill="white"/>
<path d="M481.885 147.294C482.377 149.139 482.588 151.049 482.51 152.957C482.533 156.848 482.482 160.738 482.356 164.627C482.375 166.622 482.122 168.61 481.603 170.535C481.208 171.787 480.598 172.961 480.19 174.209C478.966 177.949 479.635 182.005 479.739 185.941C479.814 187.215 479.706 188.493 479.419 189.736C478.773 192.176 477.038 194.147 475.826 196.358C474.676 198.458 473.982 200.812 472.608 202.771C471.234 204.73 468.855 206.282 466.55 205.681C464.803 205.225 463.562 203.668 462.704 202.07C460.83 198.556 460.19 194.508 460.885 190.581C461.747 185.804 464.534 181.566 465.539 176.817C466.919 170.296 464.821 163.567 464.884 156.899C464.855 155.854 464.996 154.811 465.3 153.812C465.827 152.289 466.96 151.073 468.005 149.851C469.312 148.325 470.526 146.721 471.641 145.047C472.39 143.922 473.407 141.03 474.734 140.789C477.698 140.252 481.149 144.988 481.885 147.294Z" fill="white"/>
<path d="M390.674 212.294C389.035 211.879 387.346 211.698 385.657 211.757C383.883 211.856 382.15 212.334 380.573 213.159C378.996 213.985 377.612 215.139 376.513 216.545C375.413 217.951 374.623 219.577 374.196 221.314C373.769 223.051 373.713 224.86 374.034 226.62C374.443 228.527 375.112 230.368 376.022 232.09C377.352 234.809 378.948 237.521 381.41 239.264C382.894 240.222 384.492 240.988 386.166 241.543L399.137 246.464C401.045 247.188 402.953 247.912 404.881 248.583C414.562 251.953 424.655 253.974 434.881 254.59C437.992 254.883 441.129 254.723 444.195 254.114C444.936 254.017 445.616 253.647 446.103 253.076C446.35 252.643 446.496 252.158 446.529 251.659L447.327 246.032C447.506 245.248 447.483 244.431 447.259 243.659C446.894 242.714 445.977 242.119 445.103 241.613C436.576 236.681 426.619 233.96 419.441 227.19C417.752 225.597 416.338 223.071 414.285 221.988C411.957 220.761 409.215 220.06 406.808 218.929C401.548 216.456 396.375 213.614 390.674 212.294Z" fill="#2F2E41"/>
<path opacity="0.1" d="M403.623 219.88C408.208 221.327 427.565 231.35 430.882 234.849C430.438 235.011 415.349 226.495 414.896 226.358C410.746 225.21 406.682 223.768 402.734 222.042C401.948 221.676 397.626 219.955 397.822 218.956C398.042 217.828 402.81 219.623 403.623 219.88Z" fill="black"/>
<path d="M460.82 257.508C461.08 257.527 461.339 257.451 461.547 257.293C461.638 257.174 461.705 257.039 461.744 256.894C461.783 256.75 461.794 256.599 461.774 256.45L461.753 248.784C459.564 247.734 457.115 247.397 454.712 247.074L443.498 245.564C443.755 245.599 441.744 250.428 442.053 251.073C442.596 252.209 446.75 253.216 447.922 253.753C451.996 255.618 456.231 257.669 460.82 257.508Z" fill="#A0616A"/>
<path d="M425.636 248.758C423.519 249.097 421.156 249.398 419.785 251.057C418.046 253.162 418.786 256.3 419.616 258.908C419.666 259.244 419.783 259.567 419.96 259.857C420.137 260.147 420.369 260.399 420.644 260.597C420.919 260.795 421.231 260.935 421.56 261.01C421.89 261.085 422.232 261.092 422.564 261.031C424.495 261.154 426.55 261.251 428.237 260.297C429.001 259.789 429.737 259.238 430.441 258.648C431.685 257.814 433.053 257.184 434.493 256.782C437.14 255.943 439.865 255.378 442.626 255.094C443.714 255.044 444.79 254.853 445.83 254.525C446.349 254.357 446.822 254.07 447.214 253.688C447.605 253.305 447.903 252.837 448.086 252.319C448.477 250.926 447.673 249.506 446.902 248.284C446.013 246.684 444.86 245.248 443.491 244.039C441.402 242.404 440.368 243.659 438.263 244.705C434.28 246.685 430.023 248.051 425.636 248.758Z" fill="#A0616A"/>
<path d="M420.103 250.678L406.659 246.677C405.047 246.111 403.362 245.782 401.656 245.7C400.803 245.665 399.951 245.814 399.159 246.136C398.366 246.459 397.651 246.948 397.062 247.572C396.019 248.804 395.721 250.488 395.461 252.085L394.905 255.502C394.534 257.225 394.429 258.995 394.594 260.75C394.683 261.628 394.97 262.473 395.433 263.222C395.896 263.972 396.522 264.605 397.265 265.073C399.125 266.095 401.405 265.596 403.482 265.169C407.676 264.305 411.941 263.845 416.222 263.793C417.831 263.773 419.519 263.794 420.941 263.035C421.766 262.542 422.459 261.854 422.961 261.03C423.462 260.206 423.755 259.271 423.816 258.307C424.081 255.387 423.114 251.575 420.103 250.678Z" fill="#2F2E41"/>
<path d="M466.105 247.191C467.848 246.884 469.386 245.886 471.056 245.297C473.406 244.469 475.954 244.469 478.444 244.478C479.36 244.393 480.28 244.579 481.093 245.012C482.19 245.747 482.471 247.219 482.658 248.533L483.783 256.46C484.084 257.939 484.115 259.461 483.875 260.951C483.545 262.42 482.551 263.836 481.103 264.215C479.345 264.675 477.622 263.544 475.962 262.801C471.813 260.944 466.991 261.419 462.665 260.031C462.251 259.948 461.86 259.777 461.517 259.53C461.174 259.283 460.887 258.965 460.675 258.598C460.527 258.158 460.474 257.691 460.52 257.228C460.594 254.68 460.06 251.201 460.822 248.766C461.507 246.576 464.159 247.191 466.105 247.191Z" fill="#2F2E41"/>
<path d="M494.555 209.104C497.242 208.425 500.026 208.234 502.779 208.538C504.978 208.782 507.243 209.398 508.848 210.93C510.802 212.795 511.43 215.68 511.482 218.391C511.568 223.79 509.79 229.051 506.452 233.277C505.636 234.346 504.667 235.285 503.575 236.065C502.398 236.807 501.143 237.416 499.833 237.881L470.785 249.419C463.144 252.455 455.475 255.499 447.504 257.5C447.286 257.606 447.049 257.667 446.807 257.68C446.566 257.692 446.324 257.656 446.097 257.573C445.869 257.489 445.66 257.361 445.483 257.196C445.305 257.03 445.162 256.831 445.062 256.609C442.517 252.948 440.382 249.014 438.696 244.881C438.616 244.782 438.561 244.666 438.535 244.542C438.509 244.418 438.513 244.289 438.547 244.167C438.581 244.045 438.644 243.932 438.73 243.84C438.817 243.747 438.924 243.677 439.043 243.635L459.588 231.746C461.095 230.955 462.499 229.98 463.77 228.845C464.658 227.978 465.385 226.959 465.917 225.834C466.343 224.939 466.383 222.825 466.927 222.163C467.459 221.514 469.281 221.463 470.123 221.208C471.31 220.841 472.472 220.399 473.602 219.883C478.198 217.812 482.291 214.804 486.697 212.379C489.168 210.957 491.809 209.856 494.555 209.104Z" fill="#2F2E41"/>
<path opacity="0.1" d="M482.908 217.982C479.378 220.651 474.807 223.106 471.309 225.846C470.115 226.781 450.211 238.05 449.929 239.547C453.193 240.101 473.984 225.453 476.959 223.992C479.934 222.53 482.571 220.469 485.184 218.423C485.85 217.902 488.672 216.334 486.76 215.752C485.683 215.423 483.703 217.448 482.908 217.982Z" fill="black"/>
<path d="M458.62 130.98H427.634C426.375 130.98 425.168 131.484 424.278 132.38C423.388 133.276 422.888 134.492 422.888 135.76V137.51H422.551V141.425H422.888V144.165H422.551V146.514H422.888V175.398C422.888 176.666 423.388 177.882 424.278 178.778C425.168 179.674 426.375 180.178 427.634 180.178H458.62C459.879 180.178 461.086 179.674 461.976 178.778C462.866 177.882 463.366 176.666 463.366 175.398V135.76C463.366 134.492 462.866 133.276 461.976 132.38C461.086 131.484 459.879 130.98 458.62 130.98Z" fill="#D0CDE1"/>
<path d="M463.544 94.0584L447.829 85.768L426.126 89.1596L421.636 109.131L432.813 108.698L435.935 101.361V108.577L441.093 108.378L444.086 96.6957L445.958 109.131L464.293 108.754L463.544 94.0584Z" fill="#2F2E41"/>
<path d="M410.163 206.517C410.874 207.734 411.884 208.746 413.097 209.456C413.892 209.821 414.76 209.999 415.634 209.976C416.508 209.952 417.365 209.728 418.139 209.32C419.687 208.484 420.953 207.205 421.779 205.645C423.487 202.608 423.84 198.973 423.627 195.489C423.414 192.005 422.675 188.575 422.348 185.1C422.111 182.574 422.092 180.033 422.072 177.495C422.013 176.962 422.124 176.423 422.39 175.957C422.846 175.5 423.437 175.203 424.074 175.11C427.522 174.079 429.81 170.825 431.45 167.602C432.545 165.45 433.498 163.098 433.287 160.689C433.075 158.281 431.356 155.854 428.967 155.608C426.998 155.406 425.18 156.665 423.759 158.054C420.175 161.578 417.872 166.213 417.22 171.215C416.908 173.664 416.997 176.18 416.336 178.557C414.923 183.634 410.504 186.747 408.302 191.315C405.876 196.348 407.215 202.063 410.163 206.517Z" fill="#A0616A"/>
<path d="M475.193 187.121C474.69 188.299 473.959 189.363 473.041 190.251C472.123 191.139 471.038 191.833 469.85 192.291C468.373 192.889 466.744 192.989 465.206 192.578C464.443 192.365 463.739 191.977 463.149 191.446C462.559 190.914 462.098 190.253 461.803 189.513C461.568 188.768 461.439 187.993 461.42 187.211C461.199 183.787 461.284 180.26 462.519 177.062C462.996 175.829 463.638 174.659 464.014 173.391C464.383 171.927 464.572 170.422 464.576 168.911L464.982 159.57C465.049 158.892 465.003 158.207 464.844 157.545C464.44 156.193 463.185 155.315 462.034 154.509C459.255 152.562 456.508 150.291 455.161 147.163C454.698 146.221 454.533 145.159 454.686 144.12C455.066 142.265 456.925 141.064 458.762 140.659C459.964 140.395 461.207 140.378 462.416 140.61C463.624 140.842 464.774 141.318 465.795 142.009C466.816 142.7 467.688 143.592 468.358 144.632C469.027 145.672 469.481 146.837 469.692 148.058C469.874 149.112 469.871 150.189 469.977 151.253C470.203 153.512 470.915 155.688 471.36 157.913C472.457 163.394 471.889 169.059 472.974 174.538C473.881 179.119 477.301 182.109 475.193 187.121Z" fill="#A0616A"/>
<path d="M443.541 151.994C445.688 151.994 447.429 150.242 447.429 148.08C447.429 145.918 445.688 144.165 443.541 144.165C441.395 144.165 439.654 145.918 439.654 148.08C439.654 150.242 441.395 151.994 443.541 151.994Z" fill="#40D4CC"/>
<path d="M21.4679 288.771C27.8007 288.771 32.9345 283.601 32.9345 277.223C32.9345 270.846 27.8007 265.676 21.4679 265.676C15.135 265.676 10.0012 270.846 10.0012 277.223C10.0012 283.601 15.135 288.771 21.4679 288.771Z" fill="#2F2E41"/>
<path d="M63.0325 311.505L57.2569 305.851L45.6593 309.479L46.7732 323.002L70.6194 321.887L63.2938 311.863L63.0325 311.505Z" fill="#FBBEBE"/>
<path d="M50.4008 311.388C60.6393 311.388 68.9392 303.03 68.9392 292.719C68.9392 282.408 60.6393 274.05 50.4008 274.05C40.1624 274.05 31.8624 282.408 31.8624 292.719C31.8624 303.03 40.1624 311.388 50.4008 311.388Z" fill="#FBBEBE"/>
<path d="M165.488 335.467C165.488 335.467 188.263 374.882 193.683 380.799C196.261 383.711 199.007 386.467 201.907 389.053C201.907 389.053 199.359 397.565 195.301 397.261C192.987 397.121 190.719 396.558 188.606 395.6C188.606 395.6 186.795 390.871 183.635 388.798C180.476 386.724 154.663 361.15 155.266 352.977C155.87 344.803 165.488 335.467 165.488 335.467Z" fill="#2F2E41"/>
<path d="M84.3804 391.714C84.3804 391.714 108.663 410.695 141.665 392.859L144.509 390.752C144.509 390.752 139.709 401.625 139.264 404.573C138.748 407.991 126.252 428.014 124.213 428.973C122.174 429.932 121.724 430.817 121.724 430.817L130.378 440.409L133.577 438.038C133.577 438.038 146.053 420.238 149.702 416.982C153.351 413.725 170.736 380.145 170.736 380.145C170.736 380.145 177.383 367.492 160.794 366.541C144.206 365.589 136.573 370.142 136.573 370.142L107.132 374.852L84.3804 391.714Z" fill="#2F2E41"/>
<path d="M202.189 387.189L214.471 395.747C214.471 395.747 230.141 400.691 220.489 403.981C210.836 407.272 185.4 408.462 184.823 403.922C184.246 399.383 185.827 392.238 187.096 392.629C188.364 393.019 197.172 395.322 202.189 387.189Z" fill="#2F2E41"/>
<path d="M134.664 435.098L136.938 447.67C136.938 447.67 143.402 460.12 135.64 456.257C127.879 452.394 111.889 437.72 114.25 434.644C116.611 431.568 121.823 428.232 122.352 429.234C122.881 430.237 126.798 436.949 134.664 435.098Z" fill="#2F2E41"/>
<path d="M111.244 378.979C111.244 378.979 94.7375 398.387 84.7159 393.673C74.6942 388.958 33.6937 334.352 38.3753 324.259C43.0568 314.167 44.6265 316.315 44.6265 316.315L65.7964 318.286L59.7053 308.451C59.7053 308.451 62.5493 306.344 65.2594 309.302C67.9694 312.261 78.8498 319.65 82.6402 330.087C86.4306 340.523 97.5588 340.003 97.5588 340.003L111.244 378.979Z" fill="white"/>
<path d="M177.905 338.959L149.291 369.547L123.658 323.972L148.026 294.322L177.905 338.959Z" fill="#3F3D56"/>
<path d="M175.745 338.628L149.901 365.507L126.482 324.086L147.959 296.856L175.745 338.628Z" fill="white"/>
<path d="M147.889 368.379L149.291 369.547L148.392 371.317L108.38 383.309L108.002 381.929L109.822 380.033L147.889 368.379Z" fill="#B3B3B3"/>
<path d="M149.646 369.284L108.213 382.33L82.9558 334.268L123.658 323.972L149.646 369.284Z" fill="#D0CDE1"/>
<path d="M146.527 362.765L144.749 364.082L125.02 329.585L127.059 328.626L146.527 362.765Z" fill="#3F3D56"/>
<path d="M142.448 364.683L124.921 369.947L105.024 334.47L122.364 330.45L142.448 364.683Z" fill="#3F3D56"/>
<path d="M93.0711 338.361L96.7 337.328C96.7 337.328 116.937 335.023 117.233 341.427C117.528 347.831 93.9837 344.86 93.9837 344.86L90.8442 340.564L93.0711 338.361Z" fill="#FBBEBE"/>
<path d="M110.821 367.151L115.872 365.063C115.872 365.063 131.119 358.179 126.745 353.694C122.371 349.209 108.882 356.998 108.882 356.998L106.3 359.464L110.821 367.151Z" fill="#FBBEBE"/>
<path d="M106.32 357.241C106.32 357.241 114.544 365.496 112.673 367.434C110.801 369.373 80.1144 394.875 72.5074 386.715C64.9004 378.556 27.8379 337.588 42.2595 334.074C56.6811 330.561 60.4915 338.775 60.4915 338.775L79.5297 371.577L106.32 357.241Z" fill="white"/>
<path d="M81.6944 332.167L95.2038 336.781L94.9832 346.602L80.6956 345.05L81.6944 332.167Z" fill="white"/>
<path opacity="0.2" d="M93.8705 362.329L79.3152 370.908L62.6853 345.152L78.7379 366.369L93.8705 362.329Z" fill="black"/>
<path d="M42.2637 309.533C54.4524 309.533 64.3333 299.582 64.3333 287.307C64.3333 275.033 54.4524 265.082 42.2637 265.082C30.0751 265.082 20.1942 275.033 20.1942 287.307C20.1942 299.582 30.0751 309.533 42.2637 309.533Z" fill="#2F2E41"/>
<path d="M161.511 340.898L146.057 318.133L152.608 309.967L168.665 333.388L161.511 340.898Z" fill="#40D4CC"/>
<path d="M161.075 350.051L137.549 315.608L138.71 314.196L162.125 348.721L161.075 350.051Z" fill="#E6E6E6"/>
<path d="M158.044 353.402L134.518 318.959L135.678 317.547L159.094 352.072L158.044 353.402Z" fill="#E6E6E6"/>
<path d="M155.461 355.867L131.935 321.425L133.096 320.013L156.511 354.538L155.461 355.867Z" fill="#E6E6E6"/>
<path d="M52.037 272.469H58.8642C62.3209 272.469 65.6361 273.852 68.0804 276.314C70.5247 278.775 71.8979 282.114 71.8979 285.595H52.037V272.469Z" fill="#2F2E41"/>
<path d="M146.081 264.116L144.843 264.024C144.795 264.672 144.761 265.324 144.72 265.974L139.164 265.787L144.992 276.784L151.536 266.204L145.961 266.016C146.001 265.383 146.034 264.748 146.081 264.116Z" fill="#F6F5FF"/>
<path d="M178.665 174.476L179.652 175.235C181.132 173.283 182.678 171.334 184.247 169.442L183.294 168.641C181.713 170.546 180.156 172.51 178.665 174.476Z" fill="#F6F5FF"/>
<path d="M188.174 163.017L189.09 163.86C190.737 162.043 192.447 160.24 194.171 158.498L193.293 157.615C191.555 159.37 189.833 161.187 188.174 163.017Z" fill="#F6F5FF"/>
<path d="M198.641 152.446L199.481 153.367C201.282 151.702 203.141 150.057 205.008 148.478L204.209 147.521C202.329 149.112 200.456 150.769 198.641 152.446Z" fill="#F6F5FF"/>
<path d="M170.193 186.74L171.242 187.408C172.546 185.329 173.917 183.25 175.314 181.227L174.295 180.513C172.887 182.551 171.507 184.646 170.193 186.74Z" fill="#F6F5FF"/>
<path d="M209.986 142.847L210.742 143.838C212.681 142.339 214.676 140.865 216.672 139.459L215.961 138.435C213.95 139.852 211.94 141.336 209.986 142.847Z" fill="#F6F5FF"/>
<path d="M162.827 199.715L163.931 200.286C165.049 198.096 166.232 195.902 167.445 193.764L166.368 193.144C165.145 195.297 163.953 197.508 162.827 199.715Z" fill="#F6F5FF"/>
<path d="M150.854 234.901L149.652 234.589C149.039 236.988 148.471 239.434 147.964 241.859L149.179 242.117C149.682 239.71 150.245 237.282 150.854 234.901Z" fill="#F6F5FF"/>
<path d="M222.121 134.293L222.787 135.348C224.844 134.03 226.96 132.74 229.074 131.514L228.455 130.43C226.324 131.666 224.193 132.965 222.121 134.293Z" fill="#F6F5FF"/>
<path d="M147.824 249.401L146.599 249.198C146.2 251.638 145.85 254.125 145.558 256.589L146.791 256.737C147.081 254.292 147.428 251.823 147.824 249.401Z" fill="#F6F5FF"/>
<path d="M156.631 213.304L157.781 213.774C158.701 211.493 159.686 209.2 160.707 206.961L159.579 206.439C158.55 208.696 157.558 211.005 156.631 213.304Z" fill="#F6F5FF"/>
<path d="M151.659 227.403L152.847 227.768C153.562 225.409 154.34 223.036 155.159 220.714L153.989 220.296C153.164 222.635 152.38 225.026 151.659 227.403Z" fill="#F6F5FF"/>
<path d="M306.089 109.378C308.523 109.293 311 109.259 313.451 109.282L313.462 108.032C310.994 108.009 308.497 108.043 306.047 108.128L306.089 109.378Z" fill="#F6F5FF"/>
<path d="M234.951 126.855L235.522 127.964C237.69 126.833 239.909 125.737 242.118 124.707L241.596 123.573C239.37 124.611 237.135 125.715 234.951 126.855Z" fill="#F6F5FF"/>
<path d="M335.461 110.936C337.883 111.281 340.327 111.685 342.725 112.137L342.953 110.909C340.537 110.453 338.075 110.046 335.635 109.698L335.461 110.936Z" fill="#F6F5FF"/>
<path d="M349.929 113.662C352.306 114.221 354.705 114.843 357.058 115.509L357.394 114.305C355.024 113.634 352.607 113.008 350.212 112.445L349.929 113.662Z" fill="#F6F5FF"/>
<path d="M364.097 117.674C366.415 118.444 368.749 119.277 371.034 120.152L371.475 118.984C369.172 118.102 366.821 117.262 364.486 116.486L364.097 117.674Z" fill="#F6F5FF"/>
<path d="M320.81 109.509C323.254 109.638 325.724 109.824 328.152 110.06L328.272 108.816C325.826 108.578 323.338 108.391 320.876 108.261L320.81 109.509Z" fill="#F6F5FF"/>
<path d="M291.269 109.298L291.421 110.538C293.84 110.239 296.303 109.989 298.741 109.796L298.644 108.55C296.187 108.744 293.706 108.996 291.269 109.298Z" fill="#F6F5FF"/>
<path d="M262.311 115.551L262.679 116.745C265.011 116.018 267.392 115.334 269.754 114.712L269.44 113.502C267.06 114.129 264.661 114.818 262.311 115.551Z" fill="#F6F5FF"/>
<path d="M248.376 120.592L248.848 121.748C251.105 120.816 253.41 119.923 255.7 119.094L255.28 117.918C252.973 118.753 250.65 119.652 248.376 120.592Z" fill="#F6F5FF"/>
<path d="M276.653 111.775L276.913 112.998C279.297 112.483 281.729 112.014 284.14 111.606L283.934 110.373C281.505 110.785 279.055 111.257 276.653 111.775Z" fill="#F6F5FF"/>
<path d="M389.555 127.881L382.618 117.557L380.179 122.613C379.589 122.348 379.002 122.077 378.412 121.82L377.919 122.967C378.495 123.218 379.064 123.481 379.637 123.738L377.209 128.771L389.555 127.881Z" fill="#F6F5FF"/>
</g>
<g filter="url(#filter0_f_256_92)">
<ellipse cx="458" cy="411.5" rx="112" ry="10.5" fill="#070D2B"/>
</g>
<g filter="url(#filter1_f_256_92)">
<ellipse cx="162" cy="482.5" rx="112" ry="10.5" fill="#070D2B"/>
</g>
<defs>
<filter id="filter0_f_256_92" x="296" y="351" width="324" height="121" filterUnits="userSpaceOnUse" color-interpolation-filters="sRGB">
<feFlood flood-opacity="0" result="BackgroundImageFix"/>
<feBlend mode="normal" in="SourceGraphic" in2="BackgroundImageFix" result="shape"/>
<feGaussianBlur stdDeviation="25" result="effect1_foregroundBlur_256_92"/>
</filter>
<filter id="filter1_f_256_92" x="0" y="422" width="324" height="121" filterUnits="userSpaceOnUse" color-interpolation-filters="sRGB">
<feFlood flood-opacity="0" result="BackgroundImageFix"/>
<feBlend mode="normal" in="SourceGraphic" in2="BackgroundImageFix" result="shape"/>
<feGaussianBlur stdDeviation="25" result="effect1_foregroundBlur_256_92"/>
</filter>
<clipPath id="clip0_256_92">
<rect width="562" height="457" fill="white" transform="translate(10)"/>
</clipPath>
</defs>
</svg>
