<svg width="50" height="50" viewBox="0 0 50 50" fill="none" xmlns="http://www.w3.org/2000/svg">
<path d="M39.5833 16.6667C36.1315 16.6667 33.3333 13.8684 33.3333 10.4167C33.3333 6.96489 36.1315 4.16667 39.5833 4.16667C43.035 4.16667 45.8333 6.96489 45.8333 10.4167C45.8333 13.8684 43.035 16.6667 39.5833 16.6667Z" stroke="#132473" stroke-width="3"/>
<path d="M29.1667 4.58342C27.8205 4.31013 26.427 4.16667 25.0001 4.16667C13.4941 4.16667 4.16675 13.4941 4.16675 25C4.16675 28.3327 4.94929 31.4825 6.34062 34.276C6.71037 35.0183 6.83344 35.8669 6.61908 36.6679L5.37823 41.3056C4.83956 43.3188 6.68135 45.1604 8.69456 44.6219L13.3321 43.381C14.1333 43.1667 14.9818 43.2898 15.7241 43.6594C18.5175 45.0508 21.6674 45.8333 25.0001 45.8333C36.5059 45.8333 45.8334 36.5058 45.8334 25C45.8334 23.5731 45.6899 22.1796 45.4167 20.8333" stroke="#132473" stroke-width="3" stroke-linecap="round"/>
</svg>
